# Blender v2.80 (sub 61) OBJ File: 'Wall Panel 2.blend'
# www.blender.org
mtllib Wall Panel 2.mtl
o Plane
v -2.935579 5.893687 -0.000000
v -2.935578 0.052037 -0.000000
v 2.935578 5.893687 0.000000
v 2.935579 0.052038 0.000000
v -2.935579 1.627783 -0.787366
v 2.935579 1.627784 -0.787366
v -2.935578 1.164420 -0.000000
v 2.935579 4.455406 -0.787366
v -2.935579 4.455405 -0.787366
v 2.935579 1.164421 0.000000
v -2.935579 6.193180 -0.000000
v 2.935578 6.193181 0.000000
v -0.293558 5.893687 -0.000000
v -0.293558 6.193180 0.000000
v -0.293558 0.052037 -0.000000
v -0.293558 1.627783 -0.787366
v -0.293558 4.455405 -0.787366
v -0.293558 1.164421 -0.000000
v 0.293558 0.052037 0.000000
v 0.293558 1.627783 -0.787366
v 0.293558 4.455405 -0.787366
v 0.293558 1.164421 0.000000
v 0.293558 5.893687 0.000000
v 0.293558 6.193180 0.000000
v 0.171280 4.582520 0.018130
v -0.171281 4.582520 0.018130
v -0.171280 2.283404 0.018130
v -0.171280 2.508666 -0.441270
v -0.171280 3.883304 -0.441270
v 0.171280 2.508666 -0.441270
v 0.171280 3.883304 -0.441270
v 0.171280 2.283404 0.018130
vt 0.322940 0.582862
vt 0.029358 0.582862
vt 0.029358 0.548570
vt 0.322940 0.548570
vt 0.427670 0.969654
vt 0.427670 0.666195
vt 0.529159 0.666195
vt 0.529159 0.969654
vt 0.381656 0.052987
vt 0.675237 0.052987
vt 0.675237 0.376753
vt 0.381656 0.376753
vt 0.283413 0.666195
vt 0.283413 0.969654
vt 0.160190 0.969654
vt 0.160190 0.666195
vt 0.675237 0.548570
vt 0.381656 0.548570
vt 0.305884 0.969654
vt 0.305884 0.666195
vt 0.407373 0.666195
vt 0.407373 0.969654
vt 0.029358 0.052987
vt 0.322940 0.052987
vt 0.322940 0.376753
vt 0.029358 0.376753
vt 0.135545 0.666195
vt 0.135545 0.969654
vt 0.012322 0.969654
vt 0.012322 0.666195
vt 0.675237 0.582862
vt 0.381656 0.582862
vt 0.611072 0.917073
vt 0.545832 0.917073
vt 0.545832 0.789704
vt 0.611072 0.789704
vt 0.718176 0.054319
vt 0.804107 0.219435
vt 0.763780 0.285115
vt 0.713642 0.204852
vt 0.912665 0.107621
vt 0.912665 0.432394
vt 0.872338 0.366714
vt 0.872338 0.208827
vt 0.928236 0.042588
vt 0.993476 0.042588
vt 0.993476 0.076880
vt 0.928236 0.076880
vt 0.979889 0.226846
vt 0.941823 0.226846
vt 0.979889 0.468465
vt 0.941823 0.468465
vt 0.941823 0.311068
vt 0.979889 0.311068
vt 0.621403 0.641718
vt 0.659468 0.641718
vt 0.659468 0.700408
vt 0.621403 0.700408
vt 0.826734 0.597510
vt 0.822200 0.446977
vt 0.804107 0.544208
vt 0.763780 0.443002
vt 0.559419 0.661415
vt 0.597485 0.661415
vt 0.826734 0.054319
vt 0.822200 0.182907
vt 0.718176 0.597510
vt 0.713642 0.468923
vn -0.0000 -0.0000 1.0000
vn -0.0000 0.8618 0.5072
vn 0.0000 -0.4802 0.8772
vn -0.9818 -0.0957 0.1641
vn 0.9429 0.0000 0.3331
vn -0.0000 0.0138 0.9999
vn 0.0000 0.8979 0.4403
vn 0.0000 -0.5491 0.8358
vn 0.9818 -0.0957 0.1641
vn -0.9429 -0.0000 0.3331
vn -0.0000 -0.0162 0.9999
vn 0.9920 0.1102 0.0609
vn -0.9920 0.1102 0.0609
usemtl None
s off
f 14/1/1 11/2/1 1/3/1 13/4/1
f 22/5/2 10/6/2 6/7/2 20/8/2
f 20/9/1 6/10/1 8/11/1 21/12/1
f 19/13/1 4/14/1 10/15/1 22/16/1
f 21/12/3 8/11/3 3/17/3 23/18/3
f 7/19/2 18/20/2 16/21/2 5/22/2
f 5/23/1 16/24/1 17/25/1 9/26/1
f 2/27/1 15/28/1 18/29/1 7/30/1
f 9/26/3 17/25/3 13/4/3 1/3/3
f 12/31/1 24/32/1 23/18/1 3/17/1
f 15/33/1 19/34/1 22/35/1 18/36/1
f 13/37/4 17/38/4 29/39/4 26/40/4
f 20/41/5 21/42/5 31/43/5 30/44/5
f 24/45/1 14/46/1 13/47/1 23/48/1
f 23/48/6 13/47/6 26/49/6 25/50/6
f 28/51/1 30/52/1 31/53/1 29/54/1
f 27/55/7 32/56/7 30/57/7 28/58/7
f 29/54/8 31/53/8 25/50/8 26/49/8
f 21/42/9 23/59/9 25/60/9 31/43/9
f 17/38/10 16/61/10 28/62/10 29/39/10
f 18/36/11 22/35/11 32/63/11 27/64/11
f 22/65/12 20/41/12 30/44/12 32/66/12
f 16/61/13 18/67/13 27/68/13 28/62/13
