# Blender v2.80 (sub 61) OBJ File: 'Wall Panel 3.blend'
# www.blender.org
mtllib Wall Panel 3.mtl
o Plane
v -3.000000 6.013843 -0.000000
v -3.000000 0.013843 -0.000000
v 3.000000 6.013843 0.000000
v 3.000000 0.013843 0.000000
v -3.000000 1.458592 -0.000000
v 3.000000 1.458593 0.000000
v -2.808419 6.013843 -0.000000
v -3.000000 0.857063 -0.000000
v 2.500000 0.013843 0.236100
v 3.000000 5.761662 0.000000
v 2.784763 6.013843 0.000000
v -3.000000 5.761661 -0.000000
v -2.500000 0.013843 0.236100
v 3.000000 0.857064 0.000000
v 2.500000 1.458593 -0.000000
v -2.500000 1.458592 -0.000000
v -2.500000 0.857063 0.236100
v -2.500000 5.761661 -0.000000
v 2.500000 5.761662 0.000000
v 2.500000 0.857064 0.236100
v -2.808419 6.013843 0.409343
v -3.000000 6.013843 0.409343
v -3.000000 0.857063 0.409343
v -3.000000 0.013843 0.409343
v 2.500000 0.013843 0.409343
v 3.000000 0.013843 0.409343
v 3.000000 5.761662 0.409343
v 3.000000 6.013843 0.409343
v -3.000000 5.761661 0.409343
v -3.000000 1.458592 0.409343
v 3.000000 0.857064 0.409343
v 3.000000 1.458593 0.409343
v 2.500000 1.458593 0.409343
v 2.784763 6.013843 0.409343
v -2.500000 0.013843 0.409343
v -2.500000 1.458592 0.409343
v -2.500000 0.857063 0.409343
v -2.500000 5.761661 0.409343
v 2.500000 5.761662 0.409343
v 2.500000 0.857064 0.409343
vt 0.848535 0.159782
vt 0.848535 0.243855
vt 0.803322 0.243855
vt 0.803322 0.159782
vt 0.853057 0.243855
vt 0.853057 0.159782
vt 0.898270 0.159782
vt 0.898270 0.243855
vt 0.064955 0.041961
vt 0.617221 0.041960
vt 0.617221 0.159758
vt 0.064955 0.159758
vt 0.064955 0.244804
vt 0.617221 0.244804
vt 0.617221 0.845939
vt 0.064955 0.845939
vt 0.902792 0.843512
vt 0.902792 0.242093
vt 0.948005 0.242093
vt 0.948005 0.843512
vt 0.853057 0.845274
vt 0.898270 0.845274
vt 0.978604 0.843512
vt 0.978604 0.725659
vt 0.997739 0.725659
vt 0.997739 0.843512
vt 0.047474 0.956706
vt 0.047474 0.996506
vt 0.002261 0.996506
vt 0.002261 0.956706
vt 0.848535 0.041930
vt 0.803322 0.041930
vt 0.952526 0.641586
vt 0.997739 0.641586
vt 0.798300 0.762308
vt 0.798300 0.880105
vt 0.743074 0.880105
vt 0.743074 0.762308
vt 0.798300 0.077139
vt 0.798300 0.678275
vt 0.743074 0.678275
vt 0.743074 0.077139
vt 0.682324 0.243740
vt 0.682324 0.159707
vt 0.737551 0.159707
vt 0.737551 0.243740
vt 0.682324 0.041910
vt 0.737551 0.041910
vt 0.682324 0.880105
vt 0.682324 0.844876
vt 0.737551 0.844876
vt 0.703485 0.880105
vt 0.766847 0.041910
vt 0.743074 0.041910
vt 0.776771 0.968615
vt 0.776771 0.995392
vt 0.731558 0.995392
vt 0.731558 0.968615
vt 0.848535 0.845274
vt 0.803322 0.845274
vt 0.776771 0.925509
vt 0.731558 0.925509
vt 0.928869 0.158020
vt 0.948005 0.158020
vt 0.853057 0.041930
vt 0.898270 0.041930
vt 0.047474 0.926623
vt 0.002261 0.926623
vt 0.952526 0.040167
vt 0.997739 0.040167
vt 0.928869 0.040167
vt 0.948005 0.040167
vt 0.078073 0.996506
vt 0.051995 0.926623
vt 0.097208 0.926623
vt 0.097208 0.996506
vt 0.853057 0.880520
vt 0.898270 0.880520
vt 0.848535 0.880520
vt 0.803322 0.880520
vt 0.681824 0.995392
vt 0.707902 0.925509
vt 0.727037 0.925509
vt 0.727037 0.995392
vt 0.648674 0.881169
vt 0.030889 0.881169
vn 1.0000 0.0000 0.0000
vn -1.0000 -0.0000 0.0000
vn -0.0000 0.0000 1.0000
vn -0.0000 0.3654 0.9309
vn -0.6630 0.7486 0.0000
vn 0.0000 1.0000 0.0000
vn 0.6330 0.7742 0.0000
vn 0.0000 -1.0000 0.0000
usemtl MatWallPanel3
s off
f 14/1/1 6/2/1 32/3/1 31/4/1
f 5/5/2 8/6/2 23/7/2 30/8/2
f 13/9/3 9/10/3 20/11/3 17/12/3
f 16/13/3 15/14/3 19/15/3 18/16/3
f 19/17/2 15/18/2 33/19/2 39/20/2
f 12/21/2 5/5/2 30/8/2 29/22/2
f 17/12/4 20/11/4 15/14/4 16/13/4
f 13/23/1 17/24/1 37/25/1 35/26/1
f 11/27/5 19/28/5 39/29/5 34/30/5
f 4/31/1 14/1/1 31/4/1 26/32/1
f 17/24/1 16/33/1 36/34/1 37/25/1
f 40/35/3 25/36/3 26/37/3 31/38/3
f 39/39/3 33/40/3 32/41/3 27/42/3
f 30/43/3 23/44/3 37/45/3 36/46/3
f 23/44/3 24/47/3 35/48/3 37/45/3
f 22/49/3 29/50/3 38/51/3 21/52/3
f 29/50/3 30/43/3 36/46/3 38/51/3
f 34/53/3 39/39/3 27/42/3 28/54/3
f 33/40/3 40/35/3 31/38/3 32/41/3
f 7/55/6 1/56/6 22/57/6 21/58/6
f 6/2/1 10/59/1 27/60/1 32/3/1
f 18/61/7 7/55/7 21/58/7 38/62/7
f 15/18/2 20/63/2 40/64/2 33/19/2
f 8/6/2 2/65/2 24/66/2 23/7/2
f 3/67/6 11/27/6 34/30/6 28/68/6
f 16/33/1 18/69/1 38/70/1 36/34/1
f 20/63/2 9/71/2 25/72/2 40/64/2
f 9/73/8 4/74/8 26/75/8 25/76/8
f 1/77/2 12/21/2 29/22/2 22/78/2
f 10/59/1 3/79/1 28/80/1 27/60/1
f 2/81/8 13/82/8 35/83/8 24/84/8
f 18/16/3 19/15/3 11/85/3 7/86/3
